<?xml version="1.0" standalone="no"?>
<svg xmlns:xlink="http://www.w3.org/1999/xlink" id="wave" style="transform:rotate(0deg); transition: 0.3s" viewBox="0 0 1440 400" version="1.1" xmlns="http://www.w3.org/2000/svg"><defs><linearGradient id="sw-gradient-0" x1="0" x2="0" y1="1" y2="0"><stop stop-color="rgba(224, 255, 255, 1)" offset="0%"/><stop stop-color="rgba(188, 123, 130, 1)" offset="100%"/></linearGradient></defs><path style="transform:translate(0, 0px); opacity:1" fill="url(#sw-gradient-0)" d="M0,240L30,246.7C60,253,120,267,180,246.7C240,227,300,173,360,186.7C420,200,480,280,540,300C600,320,660,280,720,226.7C780,173,840,107,900,113.3C960,120,1020,200,1080,233.3C1140,267,1200,253,1260,220C1320,187,1380,133,1440,126.7C1500,120,1560,160,1620,200C1680,240,1740,280,1800,266.7C1860,253,1920,187,1980,193.3C2040,200,2100,280,2160,266.7C2220,253,2280,147,2340,113.3C2400,80,2460,120,2520,133.3C2580,147,2640,133,2700,126.7C2760,120,2820,120,2880,120C2940,120,3000,120,3060,146.7C3120,173,3180,227,3240,246.7C3300,267,3360,253,3420,260C3480,267,3540,293,3600,273.3C3660,253,3720,187,3780,193.3C3840,200,3900,280,3960,300C4020,320,4080,280,4140,280C4200,280,4260,320,4290,340L4320,360L4320,400L4290,400C4260,400,4200,400,4140,400C4080,400,4020,400,3960,400C3900,400,3840,400,3780,400C3720,400,3660,400,3600,400C3540,400,3480,400,3420,400C3360,400,3300,400,3240,400C3180,400,3120,400,3060,400C3000,400,2940,400,2880,400C2820,400,2760,400,2700,400C2640,400,2580,400,2520,400C2460,400,2400,400,2340,400C2280,400,2220,400,2160,400C2100,400,2040,400,1980,400C1920,400,1860,400,1800,400C1740,400,1680,400,1620,400C1560,400,1500,400,1440,400C1380,400,1320,400,1260,400C1200,400,1140,400,1080,400C1020,400,960,400,900,400C840,400,780,400,720,400C660,400,600,400,540,400C480,400,420,400,360,400C300,400,240,400,180,400C120,400,60,400,30,400L0,400Z"/></svg>