<svg width="50px" height="50px" fill="#cfb998" viewBox="0 0 50 50" xmlns="http://www.w3.org/2000/svg"><title>ionicons-v5-k</title><path d="M26.074 46.289l-0.079 -0.013A0.083 0.083 0 0 0 26.074 46.289Z"/><path d="M43.838 18.338a0.538 0.538 0 0 0 -1.042 -0.061h0A0.539 0.539 0 0 1 42.285 18.652H40.774a0.535 0.535 0 0 1 -0.277 -0.077l-2.186 -1.311a0.535 0.535 0 0 0 -0.277 -0.077h-3.496a0.535 0.535 0 0 0 -0.299 0.091l-4.311 2.874A0.539 0.539 0 0 0 29.688 20.606v4.076a0.538 0.538 0 0 0 0.285 0.476l5.654 3.017a0.542 0.542 0 0 1 0.285 0.469L35.938 30.938a0.54 0.54 0 0 0 0.279 0.464l2.271 1.256a0.541 0.541 0 0 1 0.279 0.471v4.746a0.539 0.539 0 0 0 0.896 0.404c0.916 -0.806 2.229 -1.984 2.404 -2.254q0.434 -0.671 0.814 -1.374a20.253 20.253 0 0 0 1.329 -3.027C45.445 28.04 44.466 21.596 43.838 18.338Z"/><path d="M27.969 29.57l-5.989 -4.492a0.391 0.391 0 0 0 -0.234 -0.079h-2.841a0.369 0.369 0 0 1 -0.261 -0.109l-1.34 -1.34a0.391 0.391 0 0 0 -0.276 -0.114H11.831a0.37 0.37 0 0 1 -0.261 -0.631l0.822 -0.822a0.369 0.369 0 0 1 0.261 -0.109h3.161a0.781 0.781 0 0 0 0.752 -0.569l0.673 -2.392a0.391 0.391 0 0 1 0.195 -0.241L20.117 17.291a0.37 0.37 0 0 0 0.2 -0.329v-1.221a0.373 0.373 0 0 1 0.066 -0.212L21.809 13.476a0.366 0.366 0 0 1 0.174 -0.135l1.995 -0.749a0.37 0.37 0 0 0 0.24 -0.346V11.133a0.371 0.371 0 0 0 -0.165 -0.309L22.054 9.494A0.374 0.374 0 0 0 21.68 9.473l-2.723 1.361a0.369 0.369 0 0 1 -0.391 -0.04L17.276 9.774a0.371 0.371 0 0 1 0.01 -0.586l1.049 -0.772a0.369 0.369 0 0 0 -0.009 -0.601L16.691 6.674a0.369 0.369 0 0 0 -0.391 -0.021c-0.591 0.324 -2.324 1.28 -2.939 1.711a20.457 20.457 0 0 0 -6.656 7.813c-0.178 0.367 -0.397 0.741 -0.419 1.144s-0.338 1.304 -0.47 1.668a0.369 0.369 0 0 0 0.024 0.303l3.485 6.404a0.365 0.365 0 0 0 0.135 0.141l3.667 2.201a0.369 0.369 0 0 1 0.176 0.266l0.734 5.326a0.373 0.373 0 0 0 0.157 0.255l2.861 1.966a0.391 0.391 0 0 1 0.161 0.242l1.517 7.207a0.351 0.351 0 0 0 0.048 0.119c0.142 0.231 0.711 1.074 1.396 1.199 -0.064 0.018 -0.12 0.058 -0.184 0.076a4.651 4.651 0 0 1 0.489 0.114c0.195 0.053 0.391 0.098 0.586 0.14 0.306 0.061 0.336 0.107 0.482 -0.164 0.195 -0.364 0.419 -0.489 0.586 -0.534a0.376 0.376 0 0 0 0.282 -0.284l0.984 -4.559a0.391 0.391 0 0 1 0.156 -0.236l4.394 -3.115a0.391 0.391 0 0 0 0.165 -0.319V29.883A0.391 0.391 0 0 0 27.969 29.57Z"/><path d="M25.586 4.688s-0.356 0.021 -0.429 0.023q-0.794 0.024 -1.584 0.109A20.259 20.259 0 0 0 17.989 6.25c0.237 0.164 -0.171 0.314 -0.171 0.314L18.457 7.813h3.418l2.344 1.172 2.051 -1.172Z"/><path d="M34.593 11.724l1.574 -1.367a0.391 0.391 0 0 0 -0.091 -0.649l-1.837 -0.853a0.391 0.391 0 0 0 -0.517 0.186l-0.756 1.583a0.391 0.391 0 0 0 0.146 0.499l1.021 0.639A0.391 0.391 0 0 0 34.593 11.724Z"/><path d="M41.957 13.737l-0.569 -0.879c-0.009 -0.014 -0.016 -0.027 -0.024 -0.042 -0.102 -0.21 -0.951 -1.924 -1.66 -2.589 -0.532 -0.503 -0.684 -0.359 -0.726 -0.247a0.369 0.369 0 0 1 -0.116 0.156L36.045 12.413a0.391 0.391 0 0 1 -0.245 0.087H34.341a0.391 0.391 0 0 0 -0.276 0.114l-1.172 1.172a0.391 0.391 0 0 0 0 0.553l1.172 1.172a0.391 0.391 0 0 0 0.276 0.114h7.341a0.391 0.391 0 0 0 0.391 -0.407l-0.054 -1.284A0.391 0.391 0 0 0 41.957 13.737Z"/><path d="M25 7.031a17.969 17.969 0 1 1 -12.705 5.264A17.849 17.849 0 0 1 25 7.031m0 -3.906C12.92 3.125 3.125 12.92 3.125 25S12.92 46.875 25 46.875 46.875 37.08 46.875 25 37.08 3.125 25 3.125Z"/></svg>