<?xml version="1.0" standalone="no"?>
<svg xmlns:xlink="http://www.w3.org/1999/xlink" id="wave" style="transform:rotate(0deg); transition: 0.3s" viewBox="0 0 1440 400" version="1.1" xmlns="http://www.w3.org/2000/svg"><defs><linearGradient id="sw-gradient-0" x1="0" x2="0" y1="1" y2="0"><stop stop-color="rgba(197.265, 227.275, 227.275, 1)" offset="0%"/><stop stop-color="rgba(224, 255, 255, 1)" offset="100%"/></linearGradient></defs><path style="transform:translate(0, 0px); opacity:1" fill="url(#sw-gradient-0)" d="M0,240L120,246.7C240,253,480,267,720,246.7C960,227,1200,173,1440,186.7C1680,200,1920,280,2160,300C2400,320,2640,280,2880,226.7C3120,173,3360,107,3600,113.3C3840,120,4080,200,4320,233.3C4560,267,4800,253,5040,220C5280,187,5520,133,5760,126.7C6000,120,6240,160,6480,200C6720,240,6960,280,7200,266.7C7440,253,7680,187,7920,193.3C8160,200,8400,280,8640,266.7C8880,253,9120,147,9360,113.3C9600,80,9840,120,10080,133.3C10320,147,10560,133,10800,126.7C11040,120,11280,120,11520,120C11760,120,12000,120,12240,146.7C12480,173,12720,227,12960,246.7C13200,267,13440,253,13680,260C13920,267,14160,293,14400,273.3C14640,253,14880,187,15120,193.3C15360,200,15600,280,15840,300C16080,320,16320,280,16560,280C16800,280,17040,320,17160,340L17280,360L17280,400L17160,400C17040,400,16800,400,16560,400C16320,400,16080,400,15840,400C15600,400,15360,400,15120,400C14880,400,14640,400,14400,400C14160,400,13920,400,13680,400C13440,400,13200,400,12960,400C12720,400,12480,400,12240,400C12000,400,11760,400,11520,400C11280,400,11040,400,10800,400C10560,400,10320,400,10080,400C9840,400,9600,400,9360,400C9120,400,8880,400,8640,400C8400,400,8160,400,7920,400C7680,400,7440,400,7200,400C6960,400,6720,400,6480,400C6240,400,6000,400,5760,400C5520,400,5280,400,5040,400C4800,400,4560,400,4320,400C4080,400,3840,400,3600,400C3360,400,3120,400,2880,400C2640,400,2400,400,2160,400C1920,400,1680,400,1440,400C1200,400,960,400,720,400C480,400,240,400,120,400L0,400Z"/></svg>