<?xml version="1.0" standalone="no"?>
<svg xmlns:xlink="http://www.w3.org/1999/xlink" id="wave" style="transform:rotate(0deg); transition: 0.3s" viewBox="0 0 1440 390" version="1.1" xmlns="http://www.w3.org/2000/svg"><defs><linearGradient id="sw-gradient-0" x1="0" x2="0" y1="1" y2="0"><stop stop-color="rgba(255, 192, 203, 0.6)" offset="0%"/><stop stop-color="rgba(90, 22, 22, 1)" offset="100%"/></linearGradient></defs><path style="transform:translate(0, 0px); opacity:1" fill="url(#sw-gradient-0)" d="M0,234L48,240.5C96,247,192,260,288,240.5C384,221,480,169,576,182C672,195,768,273,864,292.5C960,312,1056,273,1152,221C1248,169,1344,104,1440,110.5C1536,117,1632,195,1728,227.5C1824,260,1920,247,2016,214.5C2112,182,2208,130,2304,123.5C2400,117,2496,156,2592,195C2688,234,2784,273,2880,260C2976,247,3072,182,3168,188.5C3264,195,3360,273,3456,260C3552,247,3648,143,3744,110.5C3840,78,3936,117,4032,130C4128,143,4224,130,4320,123.5C4416,117,4512,117,4608,117C4704,117,4800,117,4896,143C4992,169,5088,221,5184,240.5C5280,260,5376,247,5472,253.5C5568,260,5664,286,5760,266.5C5856,247,5952,182,6048,188.5C6144,195,6240,273,6336,292.5C6432,312,6528,273,6624,273C6720,273,6816,312,6864,331.5L6912,351L6912,390L6864,390C6816,390,6720,390,6624,390C6528,390,6432,390,6336,390C6240,390,6144,390,6048,390C5952,390,5856,390,5760,390C5664,390,5568,390,5472,390C5376,390,5280,390,5184,390C5088,390,4992,390,4896,390C4800,390,4704,390,4608,390C4512,390,4416,390,4320,390C4224,390,4128,390,4032,390C3936,390,3840,390,3744,390C3648,390,3552,390,3456,390C3360,390,3264,390,3168,390C3072,390,2976,390,2880,390C2784,390,2688,390,2592,390C2496,390,2400,390,2304,390C2208,390,2112,390,2016,390C1920,390,1824,390,1728,390C1632,390,1536,390,1440,390C1344,390,1248,390,1152,390C1056,390,960,390,864,390C768,390,672,390,576,390C480,390,384,390,288,390C192,390,96,390,48,390L0,390Z"/></svg>